<svg xmlns="http://www.w3.org/2000/svg" viewBox="0 0 1011.25 397.07"><defs><style>.cls-1,.cls-4{fill:none;}.cls-2{fill:#6ead6e;}.cls-3{fill:#178ea7;}.cls-4{stroke:#231f20;stroke-miterlimit:10;}</style></defs><g id="Layer_2" data-name="Layer 2"><g id="Layer_1-2" data-name="Layer 1"><path class="cls-1" d="M330.2,232c0,21,9.34,32.86,24.77,32.86,8.38,0,16-4,23.34-12.35V208.78c-7.48-6.94-14.57-9.46-21.88-9.46C342,199.32,330.2,211.84,330.2,232Z"/><path class="cls-1" d="M606.54,321.82a9.29,9.29,0,1,0,9.3,9.3A9.29,9.29,0,0,0,606.54,321.82Z"/><path class="cls-1" d="M246.81,198.19c-14,0-25.82,8.95-28.75,25.48H272C270.59,206.71,261.24,198.19,246.81,198.19Z"/><path class="cls-1" d="M522,209.64a9.3,9.3,0,1,0-9.29-9.29A9.31,9.31,0,0,0,522,209.64Z"/><path class="cls-1" d="M619.88,209.64a9.3,9.3,0,1,0-9.28-9.29A9.3,9.3,0,0,0,619.88,209.64Z"/><path class="cls-2" d="M218.06,223.67h-6.14v13.81h5.74a48.9,48.9,0,0,1-.31-5.53A47.12,47.12,0,0,1,218.06,223.67Z"/><path class="cls-2" d="M276.27,223.67H272c.13,1.48.2,3,.2,4.6Z"/><path class="cls-2" d="M288.88,227.24c0-25.82-15.45-43.65-42.59-43.65-24.74,0-47.43,18.24-47.43,48.36,0,30.81,22.17,48.67,50.22,48.67a65.35,65.35,0,0,0,36-11l-6.6-11.92c-8.32,5-16.68,8.14-27,8.14-18.19,0-31.65-9.38-33.81-28.38h-5.74V223.67h6.14c2.93-16.53,14.75-25.48,28.75-25.48,14.43,0,23.78,8.52,25.18,25.48h4.28l-4.08,4.6c0-1.6-.07-3.12-.2-4.6H218.06a47.12,47.12,0,0,0-.71,8.28,48.9,48.9,0,0,0,.31,5.53H288A68.06,68.06,0,0,0,288.88,227.24Z"/><path class="cls-2" d="M352.15,183.59c-21.41,0-41.25,18.55-41.25,48.67,0,30.66,15.83,48.36,39.71,48.36,11,0,21.64-6.24,29-13.75h.6l1.5,11.48h15.42V144.15H378.31v34.51l.9,16.24h-.45C371.08,187.77,363,183.59,352.15,183.59Zm26.16,68.95c-7.29,8.38-15,12.35-23.34,12.35-15.43,0-24.77-11.82-24.77-32.86,0-20.19,11.82-32.71,26.23-32.71,7.31,0,14.4,2.52,21.88,9.46Z"/><polygon class="cls-2" points="490.41 278.35 490.41 185.87 430.21 185.87 430.21 200.91 471.56 200.91 471.56 278.35 490.41 278.35"/><path class="cls-2" d="M654.68,185.87v57.37c0,24.08,9.79,37.38,31.45,37.38,14,0,24.56-7.22,33.58-17.69h.76l1.5,15.42h15.57V185.87H718.69v63.25c-9.24,11-16.25,15.26-25.9,15.26-13.9,0-19.25-7.63-19.25-23.61v-54.9Z"/><path class="cls-2" d="M814.76,266.16A67.05,67.05,0,0,1,775.35,254L767,266.23c11.34,7.8,27.75,14.39,45.41,14.39,27.3,0,42.3-12.71,42.3-28.19,0-14.48-7.56-22.23-37.64-28.81-18.15-3.87-25.54-6.71-25.54-14,0-6.33,5.33-11.76,19.08-11.76a55.83,55.83,0,0,1,30.82,9.47l8.84-11.76c-9.26-6.24-23.3-12-38-12-25.6,0-39.51,11.5-39.51,27,0,14,11.47,22.45,35.89,27.51,23.29,4.8,27.13,8.94,27.13,15.48C835.73,260.5,828.94,266.16,814.76,266.16Z"/><path class="cls-2" d="M903.39,144.15H884.54v134.2h18.85V214.57c9.54-9.77,16.33-14.73,26.38-14.73,13.72,0,19.14,7.46,19.14,23.6v54.91h18.85V221c0-24.08-9.85-37.38-31.44-37.38-14.16,0-24.77,7.52-33.44,17h-.61l1.12-20.81Z"/><path class="cls-3" d="M493.51,56.93a31.53,31.53,0,0,0-23.23-9.29q-13.35.26-23.23,10.53t-9.82,23.44a30,30,0,0,0,9.61,22.33,30.88,30.88,0,0,0,22.87,8.94q13.34-.25,23.23-10.53t10-23.25A29.25,29.25,0,0,0,493.51,56.93Z"/><path class="cls-3" d="M514.49,84.16q-9,9.34-8.92,21.29a27.29,27.29,0,0,0,8.73,20.29,28,28,0,0,0,20.78,8.12q12.1-.23,21.1-9.56t9.09-21.13A26.63,26.63,0,0,0,556.71,83a28.66,28.66,0,0,0-21.12-8.43Q523.47,74.83,514.49,84.16Z"/><path class="cls-3" d="M502.48,149.07a19.24,19.24,0,0,0-6.2-14.57A20.69,20.69,0,0,0,481,128.39a21.15,21.15,0,0,0-15.27,6.92,21.43,21.43,0,0,0-6.45,15.41,19.74,19.74,0,0,0,6.31,14.68,20.33,20.33,0,0,0,15,5.88,21.15,21.15,0,0,0,15.27-6.92A21.77,21.77,0,0,0,502.48,149.07Zm-23,18.69c-8.11,0-14-5.26-14-13.38,0-8,5.93-13.46,14-13.46s14.05,5.49,14.05,13.46C493.51,162.5,487.57,167.76,479.46,167.76Z"/><path class="cls-3" d="M479.46,140.92c-8.11,0-14,5.49-14,13.46,0,8.12,5.93,13.38,14,13.38s14.05-5.26,14.05-13.38C493.51,146.41,487.57,140.92,479.46,140.92Z"/><path class="cls-2" d="M849.23,66c-4.55,41-25.13,43.48,32.27,75.38-9.78-14.62-19-26.14-22.66-42,5.34,15.21,14.75,28.89,25,42.24C878.6,91.45,893.13,88.18,849.23,66Z"/><path class="cls-2" d="M826.64,150c25.61,11.26,23,25.08,55.32-5.6-11.44,3.37-20.77,7-31.78,6.15,10.93-.38,21.69-3.69,32.42-7.65C849.07,136.12,849.89,126.05,826.64,150Z"/><path class="cls-2" d="M579.39,297.77v6.92a52.91,52.91,0,0,0,32.8-16.32,57.19,57.19,0,0,0,15.35-39.6V215.24a16.63,16.63,0,0,1-14.74.27v33.26a42.57,42.57,0,0,1-11.31,29.48c-7.63,8.06-17.55,12.15-29.47,12.15-14.6,0-26.47-6.45-35.29-19.17a43.11,43.11,0,0,1-7.6-24.73v-31a16.6,16.6,0,0,1-14.73-.17V246.5a57.78,57.78,0,0,0,10.22,33.13c7.23,10.42,19.84,22.62,40,25.06v-6.92Z"/><path class="cls-3" d="M627.54,212.88v2.36a16.75,16.75,0,1,0-14.74.27v-2.63Zm-7.66-21.83a9.3,9.3,0,1,1-9.28,9.3A9.3,9.3,0,0,1,619.88,191.05Z"/><path class="cls-3" d="M627.54,215.24v-2.36H612.8v2.63a16.63,16.63,0,0,0,14.74-.27Z"/><path class="cls-3" d="M529.13,212.88v2.58a16.74,16.74,0,1,0-14.73-.17v-2.41ZM522,191.05a9.3,9.3,0,1,1-9.29,9.3A9.31,9.31,0,0,1,522,191.05Z"/><path class="cls-3" d="M529.13,215.46v-2.58H514.4v2.41a16.6,16.6,0,0,0,14.73.17Z"/><path class="cls-2" d="M953.46,12.21H46.5A46.5,46.5,0,0,0,0,58.71V292a46.5,46.5,0,0,0,46.5,46.5H525.72a3,3,0,0,1,1.78.35,5.28,5.28,0,0,1,.61,2.87l0,.81v21.85c0,9.45,1.41,21.2,7.77,27.52,5.2,5.15,13.68,5.17,20.29,5.17,10.23,0,18.15-6.44,21.71-17.66A34.49,34.49,0,0,0,579.39,369V304.69a63.7,63.7,0,0,1-7.37.44,62.08,62.08,0,0,1-7.36-.44v60.46c0,2.15-.29,8-.86,9.8-2.35,7.39-6.21,7.39-7.67,7.39-2.71,0-8.52.67-11-1.75-3.6-3.57-2.37-10.66-2.37-16.21V342.82c.14-2,.2-8.75-4.32-13.79-2.15-2.41-6.1-5.27-12.76-5.27H51.56a36.81,36.81,0,0,1-36.82-36.82V63.77A36.81,36.81,0,0,1,51.56,27H948.4a36.82,36.82,0,0,1,36.82,36.82V286.92a36.82,36.82,0,0,1-36.82,36.82H621.58a16.65,16.65,0,0,1,0,14.74H953.46A46.5,46.5,0,0,0,1000,292V58.71A46.5,46.5,0,0,0,953.46,12.21Z"/><path class="cls-2" d="M579.39,304.69v-6.92H564.66v6.92a62.08,62.08,0,0,0,7.36.44A63.7,63.7,0,0,0,579.39,304.69Z"/><path class="cls-3" d="M618.94,323.74h2.64a16.75,16.75,0,1,0,0,14.74h-2.64Zm-12.4,16.66a9.29,9.29,0,1,1,9.3-9.28A9.29,9.29,0,0,1,606.54,340.4Z"/><path class="cls-3" d="M621.58,323.74h-2.64v14.74h2.64a16.65,16.65,0,0,0,0-14.74Z"/><polygon class="cls-2" points="158.34 278.35 158.34 278.34 158.34 278.35 158.34 278.35"/><path class="cls-2" d="M40.81,91.9c1.88-5.31,4.46-8.61,7.59-10.36,20-11.18,62.34,41,89.27,37.82C169.63,115.6,165,79,165,79c-3.11,13.66-8.09,18-16.87,20.47s-18.22.27-26.57-3.63C110.2,90.58,100.32,82.4,89.94,75.22s-21.73-13.56-34-14.46a33.49,33.49,0,0,0-31.3,16.66c-3.81,6.7-5.77,17.83-5,31.14.59,10.69,3.1,29.13,7.85,49.83,6.56,36.46,37,120,37,120h0V227C49.4,181,31.91,117,40.81,91.9Z"/><polygon class="cls-2" points="87.57 278.35 87.58 278.35 87.57 278.34 87.57 278.35 87.57 278.35"/><polygon class="cls-2" points="158.34 278.35 158.34 278.35 158.34 278.35 158.34 278.35"/><polygon class="cls-2" points="141.01 278.35 141.01 278.35 141.01 278.35 141.01 278.35 141.01 278.35"/><path class="cls-2" d="M206,165a2.29,2.29,0,0,0,.1-.23c.59-1.62,1.15-3.17,1.66-4.64.8-2.28,1.49-4.34,2.06-6.14a.08.08,0,0,0,0,0c.59-2,1.13-4.12,1.61-6.23,6.93-30.21,2.93-65.42-5.76-76.28-8.44-10.55-23.09-15.31-36.68-13-13.23,2.3-33.3,9.62-43.79,17.77,34.72-8.94,53.22-5.71,62.37,8.55a30.43,30.43,0,0,1,1.73,3c14.55,28.83-6.6,103.18-24.63,146.41v44.08C164.89,277.81,193.68,198.54,206,165Z"/><path class="cls-2" d="M64,135.72H89.19l18.45,58.22,6.4,22.19h.88l6.22-22.19,18.63-58.22H165V278.35H145V214c0-14.47,2.34-41.51,3.37-54.51h-.65L138.94,190l-18,50.5H107.19L89.43,190l-8.77-30.51h-.51c1.38,13,3.37,40,3.37,54.51v64.32H64Z"/><path d="M994,8.32h-3V7.55h6.8v.77h-3V16H994Z"/><path d="M1008,7.55V16h-.85V9.23l-3.3,5.65h-.42l-3.3-5.61V16h-.85V7.55h.73l3.65,6.23,3.61-6.23Z"/><circle class="cls-4" cx="999.5" cy="11.75" r="11.25"/></g></g></svg>